<svg xmlns="http://www.w3.org/2000/svg" data-name="glipy copy" viewBox="0 0 64 64"><defs><linearGradient id="a" x1="4" x2="60" y1="32" y2="32" gradientUnits="userSpaceOnUse"><stop offset="0" stop-color="#00c0ff"/><stop offset="1" stop-color="#5558ff"/></linearGradient></defs><path fill="url(#a)" d="M56.85864,44.91732c9.7163-18.62379-4.38351-40.80478-24.7909-40.88819C21.20538,4.029,10.8599,10.96876,6.32438,21.29779c-8.0902,17.281,6.00424,39.01484,25.80781,38.669a27.77345,27.77345,0,0,0,12.791-3.11306l11.40234,1.63281A1.94237,1.94237,0,0,0,58.49,56.30692ZM54.3133,54.30748l-9.76819-1.39257-.2717.13914c-9.397,4.97671-21.85228,3.74377-29.22171-3.96626C-.02515,34.489,10.92886,7.768,31.88726,8.01167c17.895-.63125,30.2579,20.1357,21.28194,35.64106a1.96853,1.96853,0,0,0-.20567,1.18935Zm-8.86645-16.707a3.95022,3.95022,0,0,0-6.03284.58309,1.47687,1.47687,0,0,1-2.0884.37693,65.23157,65.23157,0,0,1-11.80855-11.8269,1.43294,1.43294,0,0,1,.4231-1.97883,3.94259,3.94259,0,0,0,.6276-6.04369L22.778,14.93113a3.97158,3.97158,0,0,0-5.73858.1834,12.00557,12.00557,0,0,0,.21439,16.60021L32.41871,46.87969a11.97608,11.97608,0,0,0,15.9948.71638,4.22063,4.22063,0,0,0,1.94963-3.29891,3.95514,3.95514,0,0,0-1.14807-2.929ZM35.14977,44.16259c-.41456-.266-1.06021-1.13709-2.37333-2.37351L19.97311,28.98557a8.0766,8.0766,0,0,1,.02683-11.362c.03311-.0425,3.826,3.90346,3.84907,3.89749a5.32333,5.32333,0,0,0-1.50769,7.39163,53.74654,53.74654,0,0,0,6.006,6.87628c4.71818,4.3949,9.35772,10.2786,14.35809,4.53362.00177-.04512,3.80334,3.848,3.80962,3.83822A8.16511,8.16511,0,0,1,35.14977,44.16259Z"/></svg>